<svg width="18" height="19" viewBox="0 0 18 19" fill="none" xmlns="http://www.w3.org/2000/svg">
<path d="M16 0.883179H2C0.9 0.883179 0 1.78318 0 2.88318V16.8832C0 17.9832 0.9 18.8832 2 18.8832H16C17.1 18.8832 18 17.9832 18 16.8832V2.88318C18 1.78318 17.1 0.883179 16 0.883179ZM7.71 14.1732C7.32 14.5632 6.69 14.5632 6.3 14.1732L2.71 10.5832C2.32 10.1932 2.32 9.56318 2.71 9.17318C3.1 8.78318 3.73 8.78318 4.12 9.17318L7 12.0532L13.88 5.17318C14.27 4.78318 14.9 4.78318 15.29 5.17318C15.68 5.56318 15.68 6.19318 15.29 6.58318L7.71 14.1732Z" fill="#0C63DF"/>
</svg>
