<svg width="34" height="35" viewBox="0 0 34 35" fill="none" xmlns="http://www.w3.org/2000/svg">
<g clip-path="url(#clip0_60_182)">
<path d="M32.0463 14.9599C32.0344 16.8468 31.591 18.2721 30.9796 19.6587C30.8374 20.0095 30.6751 20.3526 30.4935 20.6865C29.2692 22.7861 28.5667 25.0571 27.9923 27.3795C27.5721 29.0909 27.072 30.7884 26.1635 32.3391C25.9332 32.7362 25.6602 33.1094 25.3489 33.4529C23.9481 34.9783 21.788 34.9589 20.3991 33.4236C19.7575 32.7146 19.3758 31.8715 19.0683 30.9971C18.7055 29.9593 18.3833 28.9082 18.0058 27.8751C17.8508 27.4461 17.639 27.0377 17.3754 26.6598C16.7808 25.8181 15.7918 25.7928 15.2434 26.6598C14.8175 27.3321 14.5429 28.0972 14.2551 28.8415C13.893 29.7853 13.6135 30.7577 13.2528 31.7021C12.9726 32.4358 12.5671 33.1028 11.9759 33.6617C10.6802 34.8822 8.77854 34.8976 7.47647 33.6823C6.64367 32.906 6.10855 31.9402 5.74854 30.9084C5.23584 29.4411 4.75045 27.9611 4.37013 26.4598C3.88754 24.5562 3.21514 22.7367 2.26888 20.9953C1.52224 19.6173 0.931091 18.176 0.667035 16.6293C-0.0375827 12.4881 2.76828 7.64794 8.09143 6.88493C9.85648 6.63148 11.4303 7.04767 12.8697 8.01144C13.355 8.33558 13.8341 8.6684 14.323 8.98654C14.6032 9.16729 14.8904 9.33336 15.1817 9.49277C15.9319 9.90229 16.6988 9.91296 17.4301 9.47876C18.2005 9.02256 18.9359 8.51967 19.6868 8.03745C20.5609 7.47519 21.4799 6.99765 22.5445 6.87692C24.5708 6.64682 26.4332 7.12437 28.0967 8.21686C30.7071 9.9223 31.9125 12.3614 32.0463 14.9599ZM9.14276 10.7947C7.33849 10.8247 5.58674 12.0839 5.07334 13.7207C5.02655 13.8664 5.01596 14.0205 5.04241 14.1709C5.06887 14.3212 5.13164 14.4636 5.22577 14.5869C5.3199 14.7101 5.44282 14.8109 5.58484 14.8812C5.72686 14.9515 5.88408 14.9894 6.04411 14.9919C6.57923 15.0013 6.89372 14.7251 7.09473 14.2723C7.49047 13.3879 8.16007 12.8409 9.20299 12.7863C9.87119 12.7516 10.3454 12.3194 10.3236 11.7578C10.3054 11.1822 9.81585 10.7834 9.14625 10.7947H9.14276Z" fill="#0C63DF"/>
<path d="M29.8596 6.2166C29.868 5.84243 30.0774 5.52829 30.4844 5.35554C30.9807 5.14478 31.4839 4.94825 31.9938 4.76594C32.2499 4.66864 32.5359 4.6711 32.7901 4.77279C33.0443 4.87448 33.2463 5.06726 33.3526 5.30952C33.569 5.81509 33.3372 6.37 32.7831 6.60144C32.2572 6.82992 31.7195 7.03316 31.1722 7.21038C30.5117 7.41381 29.8645 6.92959 29.8596 6.2166Z" fill="#0C63DF"/>
<path d="M25.1493 3.6501C25.1596 3.87758 25.087 4.10145 24.9438 4.28378C24.8005 4.46611 24.5955 4.59569 24.3635 4.65055C23.9187 4.76194 23.4144 4.57718 23.2078 4.17167C22.9488 3.66483 22.7167 3.14594 22.5123 2.61697C22.3351 2.15676 22.576 1.65253 23.0222 1.43043C23.4683 1.20833 24.0861 1.30304 24.3235 1.72323C24.645 2.29349 24.8727 2.9131 25.136 3.51271C25.1488 3.55743 25.1533 3.60391 25.1493 3.6501Z" fill="#0C63DF"/>
<path d="M30.0874 1.63189C30.0651 1.74518 30.0337 1.85667 29.9935 1.96537C29.8002 2.41424 29.6048 2.86244 29.3933 3.29931C29.1327 3.84155 28.5528 4.06232 28.0092 3.84022C27.4657 3.61812 27.2437 3.05653 27.4762 2.50628C27.6716 2.04674 27.8713 1.58854 28.0905 1.139C28.3251 0.658117 28.8 0.484706 29.4213 0.624102C29.761 0.711475 30.0853 1.15501 30.0874 1.63189Z" fill="#0C63DF"/>
</g>
<defs>
<clipPath id="clip0_60_182">
<rect width="32.8649" height="34" fill="white" transform="translate(0.567627 0.58606)"/>
</clipPath>
</defs>
</svg>
