<svg width="45" height="38" viewBox="0 0 45 38" fill="none" xmlns="http://www.w3.org/2000/svg">
<g clip-path="url(#clip0_60_203)">
<path d="M0.432373 26.3424C0.61811 25.7213 0.728247 25.0619 1.00361 24.4856C2.06728 22.2512 3.85986 20.9643 6.36623 20.7893C7.61995 20.7018 8.88447 20.7743 10.1803 20.7743C10.1522 20.8938 10.1188 20.9984 10.1015 21.1051C9.95677 22.0548 9.70193 23.0045 9.69114 23.9553C9.64578 28.0572 9.6663 32.158 9.67926 36.2598C9.67926 36.7496 9.77644 37.2394 9.83259 37.7676H8.34453C7.08001 37.7676 5.81549 37.7345 4.55313 37.7751C2.46791 37.8412 0.757405 36.4626 0.4788 34.5055C0.4788 34.481 0.448571 34.4597 0.432373 34.4362V26.3424Z" fill="#0C63DF"/>
<path d="M22.4595 37.7676C19.5575 37.7676 16.6559 37.7676 13.7547 37.7676C12.6975 37.7676 12.2364 37.3109 12.2364 36.2641C12.2364 32.1334 12.2277 28.0028 12.2364 23.8732C12.2439 20.7786 14.2093 18.3243 17.2383 17.6254C17.6994 17.5256 18.1702 17.477 18.6422 17.4803C21.2133 17.4664 23.7845 17.4589 26.3556 17.4803C29.4386 17.5027 31.9094 19.4512 32.6037 22.4049C32.7124 22.9034 32.7642 23.4123 32.7581 23.9222C32.7704 28.0533 32.7725 32.1836 32.7646 36.3132C32.7646 37.3002 32.2873 37.7698 31.2852 37.7708C28.3465 37.7701 25.4046 37.7691 22.4595 37.7676Z" fill="#0C63DF"/>
<path d="M22.5026 15.916C18.2911 15.916 14.8421 12.4864 14.8356 8.30767C14.8356 4.17166 18.3138 0.762331 22.5242 0.777271C26.7346 0.79221 30.1718 4.19193 30.1664 8.3098C30.1643 12.4906 26.7087 15.9192 22.5026 15.916Z" fill="#0C63DF"/>
<path d="M35.2397 37.7441C35.2732 36.7976 35.3293 35.8799 35.3326 34.9622C35.3433 31.4558 35.3326 27.9494 35.339 24.4429C35.339 23.2585 35.2559 22.09 34.8585 20.96C34.845 20.896 34.8374 20.831 34.8358 20.7658C34.9773 20.7551 35.1004 20.738 35.2224 20.7391C36.3865 20.7487 37.5538 20.7039 38.7115 20.7871C40.2833 20.8984 41.7559 21.5872 42.8394 22.7179C43.9229 23.8486 44.5387 25.3392 44.5654 26.8961C44.6064 29.2512 44.5989 31.6095 44.5654 33.9656C44.5395 35.9994 43.0784 37.6278 41.0818 37.7238C39.1272 37.8199 37.1532 37.7441 35.2397 37.7441Z" fill="#0C63DF"/>
<path d="M3.31665 13.5022C3.29613 10.4002 5.87268 7.84668 9.03345 7.83815C10.5522 7.83503 12.01 8.42823 13.0862 9.48725C14.1624 10.5463 14.7687 11.9844 14.7719 13.4851C14.775 14.9859 14.1747 16.4265 13.103 17.4899C12.0313 18.5533 10.576 19.1525 9.05722 19.1556C5.91589 19.1695 3.33609 16.6288 3.31665 13.5022Z" fill="#0C63DF"/>
<path d="M41.6918 13.4819C41.689 14.9826 41.0857 16.4214 40.0135 17.4843C38.9413 18.5472 37.4873 19.148 35.9686 19.1556C32.8434 19.1716 30.2626 16.6244 30.2366 13.5C30.2107 10.3948 32.7851 7.84449 35.9502 7.84449C37.4675 7.84165 38.924 8.43352 40.0004 9.49031C41.0767 10.5471 41.685 11.9826 41.6918 13.4819Z" fill="#0C63DF"/>
</g>
<defs>
<clipPath id="clip0_60_203">
<rect width="44.1622" height="37" fill="white" transform="translate(0.432373 0.777222)"/>
</clipPath>
</defs>
</svg>
