<svg width="41" height="45" viewBox="0 0 41 45" fill="none" xmlns="http://www.w3.org/2000/svg">
<g clip-path="url(#clip0_60_192)">
<path d="M20.038 44.9591C19.2391 44.7858 18.4714 44.5447 17.8541 43.9902C16.6685 42.9213 16.2161 41.6219 16.644 40.1007C17.0897 38.5172 18.1973 37.5504 19.8753 37.3018C21.7328 37.0251 23.2983 37.8755 24.1039 39.5302C24.2153 39.7455 24.3323 39.8122 24.5708 39.8101C25.86 39.7993 27.1492 39.8176 28.4384 39.8015C30.2613 39.7789 31.8636 38.6323 32.2469 37.0574C31.4874 37.2774 30.6763 37.2661 29.9237 37.0251C28.2935 36.5256 27.1759 35.1035 27.1614 33.3649C27.1325 29.8705 27.1102 26.376 27.1614 22.8827C27.2105 19.7963 30.5042 18.0383 33.2408 19.6047C34.5122 20.3335 35.135 21.4853 35.1451 22.8978C35.1662 27.3115 35.1896 31.7253 35.1361 36.1305C35.096 39.5302 32.1956 42.2936 28.6735 42.3744C27.3107 42.4077 25.9469 42.3744 24.5831 42.3948C24.4304 42.3948 24.1964 42.4949 24.1374 42.6101C23.5345 43.8524 22.5562 44.62 21.1656 44.8967C21.1092 44.9131 21.0547 44.9351 21.003 44.9624L20.038 44.9591Z" fill="#0C63DF"/>
<path d="M0.482914 20.1558C0.429429 10.0429 9.04817 0.960205 20.4815 0.960205C31.9149 0.960205 40.5381 10.03 40.4824 20.2753C40.1992 20.0959 39.9061 19.9317 39.6043 19.7834C39.1071 19.5651 38.5979 19.3732 38.0789 19.2085C37.8427 19.1353 37.7525 19.0459 37.7291 18.8059C37.5119 16.3588 36.731 13.9897 35.4437 11.8719C33.7343 9.0122 31.1813 6.70977 28.1108 5.2588C25.2289 3.86931 21.9973 3.30065 18.7934 3.61924C16.0073 3.86579 13.3288 4.77971 11.0003 6.27827C7.94891 8.20445 5.60549 11.013 4.3048 14.3027C3.73323 15.7481 3.36812 17.262 3.21952 18.8026C3.20615 18.9307 3.1081 19.1148 3.0067 19.159C2.17658 19.5067 1.33086 19.8253 0.482914 20.1558Z" fill="#0C63DF"/>
<path d="M5.80452 28.0683C5.80452 26.3793 5.79672 24.6891 5.80452 22.999C5.81566 21.2421 6.88088 19.7435 8.44752 19.2483C11.1396 18.3968 13.7491 20.1095 13.7959 22.8504C13.8516 26.3577 13.8583 29.8683 13.7959 33.3756C13.7402 36.4416 10.4666 38.1834 7.73663 36.6365C6.4129 35.8829 5.82011 34.689 5.80897 33.2239C5.79337 31.5057 5.80452 29.7876 5.80452 28.0683Z" fill="#0C63DF"/>
<path d="M3.13044 34.3521C1.70308 34.0506 0.503029 32.495 0.467373 30.7995C0.443973 29.6692 0.460687 28.5388 0.467373 27.4074C0.467373 26.7345 0.451773 26.0606 0.467373 25.3889C0.517514 23.7924 1.52926 22.4079 3.01121 21.8783C3.04981 21.8651 3.0898 21.8561 3.13044 21.8514V34.3521Z" fill="#0C63DF"/>
<path d="M37.7892 34.3725V21.8266C38.8466 22.1722 39.6489 22.8224 40.0845 23.8042C40.3269 24.3547 40.4617 24.9438 40.4823 25.5417C40.5325 27.2577 40.5102 28.9769 40.4968 30.694C40.4846 32.4466 39.3558 33.9656 37.7892 34.3725Z" fill="#0C63DF"/>
</g>
<defs>
<clipPath id="clip0_60_192">
<rect width="40.0541" height="44" fill="white" transform="translate(0.459473 0.960205)"/>
</clipPath>
</defs>
</svg>
