<svg width="40" height="40" viewBox="0 0 40 40" fill="none" xmlns="http://www.w3.org/2000/svg">
<g clip-path="url(#clip0_60_172)">
<path d="M8.01324 4.4223C8.01324 6.02179 8.00064 7.50702 8.0201 8.98197C8.01919 9.43694 8.07105 9.89048 8.17466 10.3335C8.66927 12.2758 10.579 13.5451 12.6055 13.304C13.564 13.1804 14.4467 12.7191 15.0944 12.0032C15.742 11.2874 16.112 10.3642 16.1376 9.40013C16.1617 7.93203 16.1445 6.46279 16.1456 4.99469V4.50685H23.8521V4.96384C23.8521 6.40338 23.8418 7.84291 23.8521 9.28245C23.8716 11.3469 25.4081 13.0709 27.4083 13.2972C28.4041 13.4228 29.4112 13.1743 30.2336 12.5999C31.056 12.0255 31.6348 11.1663 31.8574 10.1896C31.9373 9.81407 31.9757 9.43095 31.9719 9.04709C31.9857 7.69325 31.9719 6.33825 31.9719 4.9844V4.53426C35.33 3.99044 38.727 6.40566 39.3532 9.75544C39.4457 10.2598 39.492 10.7714 39.4918 11.2841C39.4986 18.3835 39.4986 25.4829 39.4918 32.5824C39.4918 35.9653 37.3634 38.6136 34.1301 39.2625C33.6669 39.3491 33.1965 39.3908 32.7253 39.387C24.2231 39.3939 15.7212 39.3939 7.2198 39.387C3.83655 39.387 1.17804 37.1797 0.570087 33.8814C0.499802 33.4597 0.467237 33.0326 0.472771 32.6052C0.472771 25.4921 0.472771 18.3786 0.472771 11.2647C0.472771 7.95145 2.53363 5.30773 5.67759 4.63823C6.42637 4.48057 7.19233 4.49428 8.01324 4.4223ZM3.73466 17.7894V18.2624C3.73466 23.0228 3.73466 27.7832 3.73466 32.5435C3.73466 34.7451 5.14405 36.1401 7.35833 36.1412H32.6486C34.8548 36.1412 36.2574 34.7405 36.2585 32.5298C36.2585 27.7679 36.2585 23.0076 36.2585 18.2487C36.2585 18.0968 36.2436 17.9459 36.2356 17.7917L3.73466 17.7894Z" fill="#0C63DF"/>
<path d="M10.4564 5.65276C10.4564 4.48399 10.4564 3.31522 10.4564 2.1476C10.4564 1.12507 11.1193 0.411017 12.0524 0.398449C12.9856 0.385882 13.6931 1.09537 13.6988 2.10304C13.7141 4.46952 13.7141 6.83523 13.6988 9.20018C13.6988 10.1279 13.1172 10.7825 12.2654 10.8968C11.8934 10.9413 11.5174 10.8549 11.2023 10.6527C10.8872 10.4504 10.6526 10.1448 10.5389 9.78857C10.4801 9.5692 10.4527 9.34265 10.4576 9.11564C10.4564 7.95716 10.4564 6.80667 10.4564 5.65276Z" fill="#0C63DF"/>
<path d="M29.5298 5.67218C29.5298 6.89807 29.5447 8.12282 29.5298 9.34871C29.5172 10.1325 28.9573 10.746 28.1753 10.8854C27.8128 10.9443 27.4409 10.8771 27.122 10.6951C26.8031 10.5131 26.5566 10.2274 26.4236 9.88568C26.3396 9.65924 26.2958 9.41992 26.2942 9.17848C26.2851 6.82724 26.2851 4.476 26.2942 2.12475C26.2942 1.19705 26.8598 0.535552 27.7082 0.411021C28.0868 0.360883 28.4709 0.446486 28.7921 0.652579C29.1133 0.858672 29.3508 1.17187 29.4622 1.53637C29.519 1.7564 29.5445 1.98332 29.5378 2.21044C29.5447 3.36435 29.5378 4.51941 29.5378 5.67332L29.5298 5.67218Z" fill="#0C63DF"/>
<path d="M18.9712 27.9507C20.06 26.8619 21.0882 25.836 22.1129 24.8054C22.5216 24.3953 23.0048 24.1874 23.5829 24.2879C23.8757 24.3272 24.1513 24.4488 24.3773 24.6386C24.6034 24.8284 24.7707 25.0784 24.8595 25.3596C25.0782 25.9971 24.9271 26.5717 24.4554 27.0482C23.3505 28.1609 22.2377 29.2657 21.1282 30.3728C20.795 30.7053 20.4687 31.0446 20.1264 31.3668C19.4498 32.002 18.5235 32.018 17.8537 31.377C17.0615 30.6154 16.2844 29.8404 15.5227 29.0521C15.2174 28.7507 15.0445 28.3407 15.0421 27.9122C15.0398 27.4837 15.2081 27.0718 15.5101 26.7671C15.8121 26.4624 16.223 26.2899 16.6524 26.2876C17.0818 26.2852 17.4946 26.4532 17.7999 26.7545C18.1961 27.1236 18.5567 27.5269 18.9712 27.9507Z" fill="#0C63DF"/>
</g>
<defs>
<clipPath id="clip0_60_172">
<rect width="39.027" height="39" fill="white" transform="translate(0.48645 0.39502)"/>
</clipPath>
</defs>
</svg>
