<svg width="45" height="47" viewBox="0 0 45 47" fill="none" xmlns="http://www.w3.org/2000/svg">
<g clip-path="url(#clip0_60_223)">
<path d="M32.3447 0.578006C32.9575 0.751129 33.5886 0.871353 34.1732 1.10819C35.8192 1.77544 36.6526 2.97046 36.6821 4.76299C36.72 7.10495 36.2494 9.281 34.8988 11.2443C34.5422 11.7636 34.4821 12.3467 34.6132 12.9683C34.84 14.0503 35.1035 15.1323 35.2126 16.2335C35.3984 17.881 35.1656 19.548 34.5348 21.0858C34.3207 21.5975 34.0317 22.0758 33.6769 22.5056C33.004 23.3147 31.8703 23.0586 31.5088 22.0716C31.0038 20.6926 30.5283 19.298 29.9339 17.9587C29.6091 17.2374 29.1091 16.5581 28.5857 15.945C27.9962 15.2561 27.4398 15.2886 26.8013 15.945C25.8122 16.9657 25.2582 18.2377 24.7508 19.5253C24.4383 20.3199 24.1833 21.1375 23.9346 21.9538C23.7752 22.4756 23.4762 22.8362 22.9308 22.9492C22.3854 23.0622 21.9503 22.817 21.6194 22.3962C20.7394 21.2757 20.4208 19.9593 20.2381 18.5935C19.993 16.7637 20.2247 14.9736 20.7284 13.2135C20.846 12.8485 20.8761 12.4618 20.8164 12.0836C20.7566 11.7053 20.6087 11.3456 20.384 11.0327C18.9133 8.88907 18.5529 6.4882 18.7907 3.98154C18.9059 2.75766 19.6486 1.85839 20.7578 1.33662C21.4932 0.992778 22.3045 0.820857 23.0864 0.573196H24.5572C25.7252 0.842498 26.8123 1.2741 27.7131 2.10846C28.6286 1.26689 29.7145 0.831677 30.8874 0.573196L32.3447 0.578006Z" fill="#0C63DF"/>
<path d="M33.1572 29.6758C34.0972 29.279 34.9956 28.8763 35.9185 28.5144C37.1513 28.0385 38.1934 27.1829 38.8881 26.0763C39.3489 25.3549 39.8992 24.7225 40.6333 24.2561C41.7646 23.5347 43.3297 23.4987 44.5675 24.1912C43.9155 25.3862 43.2709 26.5872 42.6066 27.7786C41.6089 29.5676 40.3797 31.1653 38.7692 32.4914C37.2727 33.7249 35.8596 35.057 34.4183 36.3554C32.4475 38.1311 30.1226 39.0003 27.4532 38.9931C23.9529 38.9931 20.4513 39.0051 16.951 38.9835C16.2628 38.9619 15.5805 39.1138 14.9692 39.4247C14.7768 39.5269 14.6359 39.5449 14.4532 39.3694C12.1908 37.1356 9.9226 34.9067 7.6487 32.6826C7.61297 32.639 7.58138 32.5923 7.55432 32.5431C9.15618 30.652 10.8206 28.8162 12.9972 27.5238C13.6391 27.1378 14.3822 26.9447 15.1347 26.9683C16.4191 26.9948 17.7085 26.9803 18.988 26.9683C19.7253 26.9528 20.4515 27.147 21.0789 27.5274C21.9613 28.0636 22.8474 28.5949 23.7556 29.0903C24.0558 29.2558 24.3919 29.349 24.736 29.362C26.5254 29.3884 28.3136 29.3692 30.103 29.3776C30.4973 29.3674 30.8819 29.4979 31.1855 29.7449C31.4891 29.9919 31.6911 30.3385 31.7539 30.7205C31.8152 31.0709 31.753 31.4313 31.5774 31.7424C31.4019 32.0534 31.1234 32.2964 30.7881 32.4313C30.5012 32.5305 30.1988 32.5793 29.8946 32.5756C27.9337 32.5876 25.9801 32.5756 24.024 32.5828C23.8406 32.5765 23.657 32.5841 23.4749 32.6056C23.2834 32.6321 23.1089 32.7277 22.9856 32.8738C22.8622 33.02 22.799 33.206 22.8082 33.3955C22.8351 33.7982 23.0533 34.0711 23.4663 34.1481C23.6332 34.1704 23.8018 34.1776 23.97 34.1697C25.8501 34.1697 27.7363 34.0771 29.6078 34.1938C32.2833 34.3633 34.0702 32.1031 33.1572 29.6758Z" fill="#0C63DF"/>
<path d="M16.0367 43.2959L12.6872 46.578L0.405396 34.5304C1.50844 33.4484 2.65437 32.3303 3.75742 31.2507L16.0367 43.2959Z" fill="#0C63DF"/>
</g>
<defs>
<clipPath id="clip0_60_223">
<rect width="44.1622" height="46" fill="white" transform="translate(0.405396 0.578003)"/>
</clipPath>
</defs>
</svg>
