<svg width="91" height="116" viewBox="0 0 91 116" fill="none" xmlns="http://www.w3.org/2000/svg">
<g style="mix-blend-mode:overlay" opacity="0.25" clip-path="url(#clip0_32_154)">
<path d="M33.8864 58.0981C33.8864 55.2662 33.5812 52.5973 33.9432 50.0132C34.7735 44.1018 40.3301 39.9178 46.3835 40.2859C49.2974 40.4933 52.0333 41.7619 54.0706 43.8504C56.1079 45.939 57.3046 48.7018 57.433 51.6132C57.504 53.7371 57.433 55.8184 57.433 58.091H87.1111C89.5523 58.091 90.1768 58.8697 89.8575 61.2909C88.8499 69.5654 87.2971 77.7648 85.2092 85.8357C82.9028 94.3948 79.7164 102.621 74.2094 109.729C72.2224 112.299 69.8947 114.536 66.5806 115.343C63.8554 116.009 62.0671 115.343 61.0026 112.787C59.8903 109.955 58.9727 107.051 58.2562 104.094C56.8369 98.7134 55.7298 93.248 54.1756 87.91C53.4381 85.4642 52.3198 83.1492 50.8615 81.0499C47.9377 76.8022 43.3888 76.8022 40.3018 80.9862C37.8392 84.2994 36.6754 88.1931 35.696 92.1152C34.369 97.4815 33.2477 102.89 31.9135 108.249C31.4778 109.973 30.8345 111.637 29.9974 113.205C28.8762 115.329 27.2723 115.917 24.9021 115.435C22.6341 114.904 20.5761 113.711 18.9906 112.009C15.0945 108.165 12.6036 103.407 10.4037 98.508C6.55731 90.0692 4.55605 81.0995 2.96641 72.0306C2.34191 68.4908 1.85934 64.9511 1.3129 61.4113C0.92259 58.891 1.56129 58.1335 4.08769 58.1335H33.8935L33.8864 58.0981Z" fill="white"/>
<path d="M59.9175 13.0794V9.14313C55.8511 8.775 51.6002 8.91659 48.4706 5.34143C52.2176 3.2742 55.9292 1.42644 60.1872 0.845917C76.2752 -1.34874 89.7091 11.3166 90.7026 26.6084C91.2738 34.3994 91.0359 42.2285 89.993 49.9708C89.7659 51.5708 89.1272 52.0947 87.5305 52.0947C79.6438 52.0947 71.757 52.0947 63.8703 52.0947C62.1529 52.0947 61.4787 51.3867 61.4149 49.6947C61.3271 45.5571 59.6179 41.6186 56.6536 38.7233C53.6893 35.8281 49.706 34.2066 45.5575 34.2066C41.409 34.2066 37.4256 35.8281 34.4613 38.7233C31.497 41.6186 29.7878 45.5571 29.7001 49.6947C29.6362 51.4009 28.9904 52.0947 27.2446 52.0947C19.3579 52.0947 11.4712 52.0947 3.58447 52.0947C1.99483 52.0947 1.36323 51.5283 1.14323 49.9213C-0.0419052 41.2984 -0.503184 32.626 0.745822 24.0031C2.69739 10.552 14.5417 -0.159361 28.7278 0.640626C35.1704 0.867033 41.2695 3.59545 45.7242 8.24404C48.4635 11.0759 51.806 12.2157 55.5034 12.7254C56.9156 12.9307 58.3562 12.9661 59.9175 13.0794ZM12.1288 27.3305C13.7752 18.9058 18.1467 13.3767 27.0956 12.3572V8.59802C18.2887 7.85467 6.96958 19.097 8.54503 27.0048L12.1288 27.3305Z" fill="white"/>
</g>
<defs>
<clipPath id="clip0_32_154">
<rect width="91" height="115" fill="white" transform="translate(0 0.598145)"/>
</clipPath>
</defs>
</svg>
