<svg width="38" height="41" viewBox="0 0 38 41" fill="none" xmlns="http://www.w3.org/2000/svg">
<g clip-path="url(#clip0_60_215)">
<path d="M24.6547 10.1634C24.6547 11.0553 24.6547 11.9151 24.6547 12.7748C24.6629 14.6206 25.8699 15.8375 27.707 15.8328C28.4408 15.8328 29.183 15.8471 29.905 15.7423C31.197 15.5565 32.1467 14.3836 32.1668 13.063C32.1774 12.1282 32.1739 11.1923 32.1786 10.2563C32.1786 10.2301 32.1998 10.2039 32.227 10.1372C32.9868 10.1372 33.7667 10.086 34.5371 10.1515C35.3076 10.217 35.973 10.9291 36.0473 11.7305C36.1653 12.9713 36.2314 14.2157 36.3116 15.4589C36.4548 17.6658 36.5936 19.8728 36.7281 22.0797C36.8307 23.7385 36.9204 25.3973 37.0231 27.0572C37.1552 29.1887 37.298 31.3215 37.4313 33.4542C37.5056 34.6545 37.5882 35.862 37.0773 37.0015C36.0391 39.3343 34.2339 40.562 31.7125 40.5739C23.2341 40.6001 14.7553 40.6001 6.27615 40.5739C3.34776 40.568 1.16032 38.7056 0.582193 35.8108C0.512941 35.4312 0.491924 35.0442 0.519657 34.6593C0.717872 31.2822 0.933784 27.9051 1.1379 24.528C1.296 21.9213 1.44113 19.3135 1.60159 16.7068C1.70305 15.0623 1.79744 13.4179 1.94374 11.7781C2.03341 10.7886 2.82391 10.1348 3.81144 10.1313C4.458 10.1313 5.10928 10.1313 5.79005 10.1313C5.80303 10.2563 5.82427 10.3694 5.82427 10.479C5.82427 11.2661 5.82427 12.0544 5.82427 12.8415C5.82427 14.4538 6.75752 15.6053 8.34796 15.7911C9.21128 15.8884 10.0833 15.8764 10.9436 15.7554C12.3937 15.5553 13.3163 14.4015 13.3387 12.9082C13.3517 12.0044 13.3387 11.0994 13.3387 10.1634H24.6547ZM17.1402 27.2489C17.1402 28.5695 17.1331 29.8294 17.1402 31.0893C17.1473 32.0562 17.8387 32.8028 18.8321 32.9409C19.6273 33.0529 20.5146 32.4646 20.7635 31.6311C20.8287 31.389 20.8593 31.1388 20.8544 30.888C20.8638 29.6889 20.8544 28.4897 20.8544 27.2668C21.0278 27.2585 21.1564 27.2477 21.285 27.2477C22.3469 27.2477 23.4088 27.2573 24.4647 27.2394C24.7575 27.2364 25.0477 27.1845 25.3237 27.0858C25.7222 26.9385 26.0577 26.6561 26.2729 26.2869C26.488 25.9177 26.5696 25.4846 26.5035 25.0614C26.4485 24.6374 26.2467 24.2466 25.9339 23.9581C25.6211 23.6696 25.2173 23.502 24.7939 23.4848C23.6612 23.4479 22.5262 23.4694 21.3924 23.4634C21.2225 23.4634 21.0514 23.4479 20.898 23.4408C20.8823 23.3954 20.8705 23.3488 20.8626 23.3015C20.8626 22.069 20.8626 20.8353 20.8532 19.6028C20.8426 18.7955 20.4438 18.2156 19.717 17.9C19.4349 17.7788 19.1274 17.7303 18.8222 17.7588C18.5169 17.7873 18.2234 17.8919 17.9682 18.0633C17.7129 18.2346 17.5038 18.4673 17.3597 18.7404C17.2156 19.0135 17.141 19.3184 17.1426 19.6278C17.1331 20.8877 17.1426 22.1476 17.1426 23.4682H16.5845C15.4365 23.4741 14.2873 23.4503 13.1405 23.4967C12.2261 23.5325 11.5076 24.3458 11.4887 25.2651C11.4651 26.4094 12.2792 27.2346 13.4614 27.2454C14.6661 27.2561 15.8719 27.2489 17.1402 27.2489Z" fill="#0C63DF"/>
<path d="M11.485 4.45616V8.31552C11.485 9.78735 11.485 11.2584 11.485 12.7286C11.485 13.5991 11.1204 13.9587 10.245 13.9599C9.74471 13.9599 9.24328 13.967 8.74302 13.9599C8.06107 13.9492 7.69295 13.5645 7.69177 12.8727C7.69177 10.0791 7.69177 7.28588 7.69177 4.49307C7.69177 2.28176 9.33412 0.609889 11.5357 0.602745C14.8487 0.593218 18.1618 0.602745 21.4736 0.602745C23.1077 0.602745 24.7418 0.614653 26.3759 0.602745C26.898 0.590356 27.4171 0.68501 27.9019 0.88098C28.3867 1.07695 28.8271 1.37016 29.1964 1.74286C29.5657 2.11556 29.8562 2.56002 30.0503 3.04931C30.2445 3.53861 30.3383 4.06259 30.326 4.58952C30.2564 7.32121 30.3083 10.0565 30.3083 12.7905C30.3083 13.6241 29.9614 13.9647 29.1285 13.967C28.6719 13.967 28.2153 13.967 27.7587 13.967C26.8844 13.967 26.521 13.6098 26.5198 12.7346C26.5198 10.1196 26.5198 7.50499 26.5198 4.8908V4.46449L11.485 4.45616Z" fill="#0C63DF"/>
</g>
<defs>
<clipPath id="clip0_60_215">
<rect width="36.973" height="40" fill="white" transform="translate(0.51355 0.594238)"/>
</clipPath>
</defs>
</svg>
