<svg width="16" height="16" viewBox="0 0 16 16" fill="none" xmlns="http://www.w3.org/2000/svg">
<path d="M13.3019 2.63024C11.8639 1.18881 9.94889 0.396019 7.91372 0.396019C3.71296 0.396019 0.2947 3.81428 0.2947 8.01504C0.2947 9.35694 0.644763 10.668 1.31057 11.8245L0.229492 15.7713L4.26894 14.7108C5.38091 15.3183 6.63358 15.6375 7.91028 15.6375H7.91372C12.111 15.6375 15.6048 12.2192 15.6048 8.01847C15.6048 5.9833 14.7399 4.07168 13.3019 2.63024ZM7.91372 14.3539C6.7743 14.3539 5.6589 14.0485 4.68765 13.4719L4.4577 13.3346L2.06217 13.9627L2.70052 11.6255L2.54952 11.3853C1.9146 10.3762 1.5817 9.2128 1.5817 8.01504C1.5817 4.5247 4.42338 1.68302 7.91715 1.68302C9.60912 1.68302 11.1981 2.34196 12.3925 3.53972C13.5868 4.73749 14.3212 6.3265 14.3178 8.01847C14.3178 11.5122 11.404 14.3539 7.91372 14.3539ZM11.3869 9.61091C11.1981 9.51482 10.2612 9.05493 10.0862 8.99315C9.91114 8.92795 9.78415 8.89706 9.65717 9.08925C9.53018 9.28144 9.16639 9.70701 9.05314 9.83742C8.94331 9.96441 8.83006 9.98157 8.6413 9.88547C7.52247 9.32606 6.78802 8.88676 6.05015 7.62036C5.85452 7.28402 6.24577 7.30805 6.60956 6.58046C6.67134 6.45348 6.64045 6.34366 6.5924 6.24756C6.54435 6.15147 6.1634 5.21453 6.00553 4.83358C5.85109 4.46293 5.69322 4.51441 5.57653 4.50754C5.46671 4.50068 5.33972 4.50068 5.21274 4.50068C5.08576 4.50068 4.87984 4.54873 4.70481 4.73749C4.52978 4.92968 4.039 5.38956 4.039 6.3265C4.039 7.26343 4.72197 8.16948 4.81463 8.29646C4.91073 8.42344 6.15654 10.3454 8.06816 11.1725C9.27622 11.6941 9.74983 11.7387 10.3539 11.6495C10.7211 11.5946 11.4796 11.1896 11.6374 10.7435C11.7953 10.2973 11.7953 9.91636 11.7472 9.83742C11.7026 9.75162 11.5757 9.70358 11.3869 9.61091Z" fill="#F2F5FA"/>
</svg>
